<?xml version="1.0" encoding="utf-8"?>
<!DOCTYPE svg PUBLIC "-//W3C//DTD SVG 1.1//EN" "http://www.w3.org/Graphics/SVG/1.1/DTD/svg11.dtd">
<svg version="1.1" baseProfile="full" 
	xmlns="http://www.w3.org/2000/svg"
	xmlns:xlink="http://www.w3.org/1999/xlink"
	xmlns:ev="http://www.w3.org/2001/xml-events"
	width="188px" height="20px">
<defs>
<path id="symbol0" fill-rule="evenodd" d="M188 15.7983 C188 15.7983 188 18.9824 188 18.9824 C188 18.9824 173.893 18.9824 173.893 18.9824 C173.893 18.9824 173.893 0.165379 173.893 0.165379 C173.893 0.165379 187.94 0.165379 187.94 0.165379 C187.94 0.165379 187.94 3.20089 187.94 3.20089 C187.94 3.20089 177.205 3.20089 177.205 3.20089 C177.205 3.20089 177.205 7.97731 177.205 7.97731 C177.205 7.97731 186.654 7.97731 186.654 7.97731 C186.654 7.97731 186.654 10.8641 186.654 10.8641 C186.654 10.8641 177.205 10.8641 177.205 10.8641 C177.205 10.8641 177.205 15.7983 177.205 15.7983 C177.205 15.7983 188 15.7983 188 15.7983 Z M163.125 18.948 C160.244 18.948 157.525 17.9769 155.263 16.0084 C155.263 16.0084 157.256 13.6986 157.256 13.6986 C159.059 15.2209 160.863 16.0873 163.205 16.0873 C165.251 16.0873 166.543 15.1685 166.543 13.7776 C166.543 13.7776 166.543 13.7248 166.543 13.7248 C166.543 12.4129 165.79 11.7041 162.29 10.9169 C158.278 9.97198 156.017 8.81714 156.017 5.4316 C156.017 5.4316 156.017 5.37915 156.017 5.37915 C156.017 2.22964 158.709 0.0513852 162.451 0.0513852 C165.197 0.0513852 167.378 0.864989 169.289 2.36092 C169.289 2.36092 167.513 4.80158 167.513 4.80158 C165.816 3.56821 164.12 2.91196 162.397 2.91196 C160.459 2.91196 159.329 3.88307 159.329 5.09036 C159.329 5.09036 159.329 5.14281 159.329 5.14281 C159.329 6.56021 160.19 7.19008 163.798 8.03006 C167.782 8.97465 169.854 10.3655 169.854 13.4103 C169.854 13.4103 169.854 13.4626 169.854 13.4626 C169.854 16.9006 167.082 18.948 163.125 18.948 Z M149.113 18.9824 C149.113 18.9824 144.483 12.2815 144.483 12.2815 C144.483 12.2815 144.429 12.2815 144.429 12.2815 C144.429 12.2815 140.337 12.2815 140.337 12.2815 C140.337 12.2815 140.337 18.9824 140.337 18.9824 C140.337 18.9824 137.026 18.9824 137.026 18.9824 C137.026 18.9824 137.026 0.165379 137.026 0.165379 C137.026 0.165379 145.425 0.165379 145.425 0.165379 C147.794 0.165379 149.652 0.996268 150.863 2.15111 C151.859 3.14814 152.424 4.51324 152.424 6.11392 C152.424 6.11392 152.424 6.16637 152.424 6.16637 C152.424 9.18446 150.567 10.9955 147.929 11.7305 C147.929 11.7305 153.017 18.9824 153.017 18.9824 C153.017 18.9824 149.113 18.9824 149.113 18.9824 Z M149.059 6.35026 C149.059 6.35026 149.059 6.29765 149.059 6.29765 C149.059 4.32936 147.606 3.2532 145.156 3.2532 C145.156 3.2532 140.337 3.2532 140.337 3.2532 C140.337 3.2532 140.337 9.42094 140.337 9.42094 C140.337 9.42094 145.183 9.42094 145.183 9.42094 C147.552 9.42094 149.059 8.21365 149.059 6.35026 Z M117.949 0.165379 C117.949 0.165379 131.921 0.165379 131.921 0.165379 C131.921 0.165379 131.921 3.20089 131.921 3.20089 C131.921 3.20089 121.261 3.20089 121.261 3.20089 C121.261 3.20089 121.261 7.97731 121.261 7.97731 C121.261 7.97731 130.71 7.97731 130.71 7.97731 C130.71 7.97731 130.71 10.8641 130.71 10.8641 C130.71 10.8641 121.261 10.8641 121.261 10.8641 C121.261 10.8641 121.261 15.7983 121.261 15.7983 C121.261 15.7983 132.056 15.7983 132.056 15.7983 C132.056 15.7983 132.056 18.9824 132.056 18.9824 C132.056 18.9824 117.949 18.9824 117.949 18.9824 C117.949 18.9824 117.949 0.165379 117.949 0.165379 Z M103.438 19.1137 C103.438 19.1137 95.6038 0.165379 95.6038 0.165379 C95.6038 0.165379 99.2653 0.165379 99.2653 0.165379 C99.2653 0.165379 104.945 14.4337 104.945 14.4337 C104.945 14.4337 110.599 0.165379 110.599 0.165379 C110.599 0.165379 114.179 0.165379 114.179 0.165379 C114.179 0.165379 106.345 19.1137 106.345 19.1137 C106.345 19.1137 103.438 19.1137 103.438 19.1137 Z M89.0851 0.165379 C89.0851 0.165379 92.3963 0.165379 92.3963 0.165379 C92.3963 0.165379 92.3963 18.9824 92.3963 18.9824 C92.3963 18.9824 89.0851 18.9824 89.0851 18.9824 C89.0851 18.9824 89.0851 0.165379 89.0851 0.165379 Z M70.1551 5.61518 C70.1551 5.61518 70.1551 18.9824 70.1551 18.9824 C70.1551 18.9824 66.8973 18.9824 66.8973 18.9824 C66.8973 18.9824 66.8973 0.165379 66.8973 0.165379 C66.8973 0.165379 69.9663 0.165379 69.9663 0.165379 C69.9663 0.165379 80.0618 13.0164 80.0618 13.0164 C80.0618 13.0164 80.0618 0.165379 80.0618 0.165379 C80.0618 0.165379 83.3194 0.165379 83.3194 0.165379 C83.3194 0.165379 83.3194 18.9824 83.3194 18.9824 C83.3194 18.9824 80.5466 18.9824 80.5466 18.9824 C80.5466 18.9824 70.1551 5.61518 70.1551 5.61518 Z M62.5972 9.44701 C62.5972 9.44701 62.5972 9.49947 62.5972 9.49947 C62.5972 14.6699 58.505 19.0003 52.7168 19.0003 C49.4624 19.0003 46.7614 17.6478 45.0202 15.5449 C43.2735 16.7179 42.1719 17.383 42.0948 17.2831 C42.0177 17.1831 42.9799 16.335 44.6221 15.0231 C43.5155 13.4731 42.8907 11.5822 42.8907 9.55222 C42.8907 9.55222 42.8907 9.49947 42.8907 9.49947 C42.8907 4.32936 46.9827 -0.00106692 52.7707 -0.00106692 C56.0086 -0.00106692 58.6982 1.33829 60.4404 3.42307 C62.2032 2.23851 63.3156 1.56627 63.3932 1.66697 C63.4707 1.76724 62.4997 2.62244 60.8435 3.94481 C61.9641 5.50054 62.5972 7.40332 62.5972 9.44701 Z M52.7168 2.96441 C48.9747 2.96441 46.3637 5.87774 46.3637 9.44701 C46.3637 9.44701 46.3637 9.49947 46.3637 9.49947 C46.3637 10.7573 46.6959 11.9392 47.2882 12.9437 C48.3843 12.1044 49.6116 11.1804 50.9207 10.2097 C50.8369 9.98893 50.7891 9.7501 50.7891 9.49947 C50.7891 8.40557 51.6644 7.5188 52.7441 7.5188 C53.2133 7.5188 53.6437 7.68661 53.9806 7.9658 C55.3044 7.00601 56.5576 6.11165 57.6915 5.31613 C56.5497 3.88476 54.8006 2.96441 52.7168 2.96441 Z M59.1244 9.49947 C59.1244 8.22764 58.7845 7.03347 58.1795 6.02177 C57.0846 6.85988 55.8596 7.78193 54.5533 8.7503 C54.6467 8.98152 54.699 9.23418 54.699 9.49947 C54.699 10.5935 53.8238 11.4806 52.7441 11.4806 C52.26 11.4806 51.8179 11.3013 51.4764 11.006 C50.154 11.9646 48.9024 12.8576 47.7706 13.6515 C48.9116 15.1011 50.6716 16.0345 52.7707 16.0345 C56.5127 16.0345 59.1244 13.1215 59.1244 9.55222 C59.1244 9.55222 59.1244 9.49947 59.1244 9.49947 Z M28.9199 19.0003 C23.1316 19.0003 19.0935 14.7222 19.0935 9.55222 C19.0935 9.55222 19.0935 9.49947 19.0935 9.49947 C19.0935 4.32936 23.1858 -0.00106692 28.9736 -0.00106692 C34.7618 -0.00106692 38.8002 4.27676 38.8002 9.44701 C38.8002 9.44701 38.8002 9.49947 38.8002 9.49947 C38.8002 14.6699 34.708 19.0003 28.9199 19.0003 Z M35.3273 9.49947 C35.3273 5.93019 32.662 2.96441 28.9199 2.96441 C25.1777 2.96441 22.5667 5.87774 22.5667 9.44701 C22.5667 9.44701 22.5667 9.49947 22.5667 9.49947 C22.5667 13.069 25.2317 16.0345 28.9736 16.0345 C32.7156 16.0345 35.3273 13.1215 35.3273 9.55222 C35.3273 9.55222 35.3273 9.49947 35.3273 9.49947 Z M0.625084 16.2971 C0.625084 16.2971 11.7434 3.17467 11.7434 3.17467 C11.7434 3.17467 0.97493 3.17467 0.97493 3.17467 C0.97493 3.17467 0.97493 0.165379 0.97493 0.165379 C0.97493 0.165379 16.0507 0.165379 16.0507 0.165379 C16.0507 0.165379 16.0507 2.70215 16.0507 2.70215 C16.0507 2.70215 4.93241 15.8246 4.93241 15.8246 C4.93241 15.8246 16.0507 15.8246 16.0507 15.8246 C16.0507 15.8246 16.0507 18.9824 16.0507 18.9824 C16.0507 18.9824 0.625084 18.9824 0.625084 18.9824 C0.625084 18.9824 0.625084 16.2971 0.625084 16.2971 Z"/>
</defs>
<g>
<use xlink:href="#symbol0" fill="rgb(227,227,227)"/>
<use xlink:href="#symbol0" fill="rgb(255,255,255)"/>
</g>
</svg>